<svg width="144" height="144" viewBox="0 0 144 144" fill="none" xmlns="http://www.w3.org/2000/svg">
<path d="M71.5008 0.0126929C70.2278 0.078784 68.9805 0.404076 67.8322 0.969485L17.7707 25.6217C16.475 26.2595 15.3365 27.1874 14.4398 28.3366C13.5431 29.4858 12.9112 30.8268 12.591 32.2599L0.240512 87.635C-0.0446797 88.9109 -0.0765966 90.2323 0.14665 91.5209C0.369897 92.8096 0.843771 94.0395 1.54023 95.1376C1.7091 95.4061 1.89072 95.6659 2.08444 95.9162L36.735 140.318C37.6319 141.467 38.7705 142.395 40.0663 143.032C41.362 143.669 42.7816 144 44.2196 144L99.7873 143.987C101.225 143.988 102.644 143.658 103.94 143.022C105.235 142.385 106.374 141.459 107.272 140.311L141.91 95.9031C142.807 94.7536 143.439 93.4121 143.76 91.9784C144.08 90.5447 144.08 89.0556 143.76 87.6219L131.39 32.2467C131.07 30.8136 130.438 29.4726 129.541 28.3234C128.645 27.1742 127.506 26.2463 126.211 25.6085L76.1427 0.969485C74.6982 0.258245 73.1021 -0.0707503 71.5008 0.0126929Z" fill="#326CE5"/>
<path d="M71.9969 18.8576C70.342 18.8578 69.0003 20.3939 69.0005 22.2889C69.0005 22.3179 69.0062 22.3457 69.0069 22.3746C69.0044 22.6321 68.9924 22.9423 69.0005 23.1665C69.0399 24.2594 69.2711 25.0959 69.4102 26.1028C69.6623 28.258 69.8735 30.0445 69.7432 31.705C69.6164 32.3312 69.1689 32.9038 68.77 33.3019L68.6996 34.6084C66.9013 34.7619 65.0911 35.0431 63.283 35.4662C55.5027 37.2868 48.804 41.4172 43.704 46.9939C43.3731 46.7612 42.7941 46.3332 42.622 46.2021C42.087 46.2765 41.5463 46.4466 40.8421 46.0239C39.5011 45.0936 38.2799 43.8095 36.8021 42.2627C36.1249 41.5228 35.6346 40.8182 34.8301 40.105C34.6474 39.943 34.3686 39.7239 34.1642 39.5573C33.5353 39.0405 32.7934 38.771 32.077 38.7457C31.1559 38.7132 30.2691 39.0843 29.6888 39.8344C28.6572 41.168 28.9875 43.2062 30.4251 44.3875C30.4397 44.3994 30.4553 44.4087 30.47 44.4204C30.6675 44.5855 30.9094 44.797 31.091 44.9351C31.9447 45.5848 32.7246 45.9173 33.5752 46.433C35.3673 47.5736 36.853 48.5194 38.0314 49.6597C38.4915 50.1652 38.572 51.0561 38.6332 51.4413L39.5936 52.3255C34.4524 60.2995 32.073 70.1489 33.4792 80.1847L32.2243 80.5608C31.8935 81.001 31.4262 81.6936 30.9373 81.9003C29.3956 82.4008 27.6604 82.5846 25.5656 82.8109C24.5821 82.8952 23.7335 82.8449 22.6909 83.0485C22.4614 83.0933 22.1416 83.1791 21.8905 83.2398C21.8818 83.2417 21.8737 83.2444 21.8649 83.2464C21.8512 83.2497 21.8333 83.2565 21.8201 83.2596C20.054 83.6994 18.9195 85.3724 19.2847 87.0208C19.65 88.6695 21.3751 89.6722 23.1518 89.2775C23.1647 89.2745 23.1833 89.274 23.1967 89.2709C23.2167 89.2662 23.2344 89.2561 23.2543 89.2511C23.502 89.1951 23.8123 89.1327 24.029 89.073C25.0541 88.7901 25.7965 88.3745 26.7181 88.0106C28.7007 87.2777 30.3428 86.6655 31.9425 86.4269C32.6107 86.373 33.3146 86.8518 33.6648 87.0538L34.9709 86.8228C37.9766 96.4267 44.2755 104.189 52.2514 109.06L51.7072 110.406C51.9033 110.929 52.1197 111.636 51.9736 112.152C51.392 113.707 50.3958 115.347 49.2614 117.176C48.7122 118.021 48.15 118.677 47.6544 119.644C47.5358 119.876 47.3847 120.231 47.2702 120.476C46.5001 122.174 47.065 124.13 48.5443 124.864C50.0329 125.602 51.8807 124.823 52.6804 123.122C52.6816 123.119 52.6856 123.117 52.6868 123.115C52.6876 123.113 52.6859 123.11 52.6868 123.108C52.8007 122.867 52.962 122.55 53.0581 122.323C53.4827 121.321 53.6239 120.462 53.9225 119.492C54.7153 117.44 55.1509 115.286 56.2422 113.944C56.5411 113.577 57.0283 113.436 57.5335 113.296L58.2122 112.029C65.1655 114.78 72.9486 115.518 80.7235 113.699C82.4972 113.284 84.2094 112.747 85.8647 112.102C86.0555 112.451 86.41 113.121 86.505 113.29C87.0183 113.462 87.5787 113.551 88.0352 114.246C88.8517 115.684 89.4101 117.385 90.0904 119.44C90.389 120.409 90.5366 121.268 90.9612 122.27C91.0579 122.499 91.2185 122.82 91.3325 123.062C92.1305 124.769 93.9841 125.551 95.475 124.811C96.9541 124.076 97.5196 122.121 96.7491 120.423C96.6346 120.178 96.4771 119.823 96.3585 119.591C95.8628 118.624 95.3008 117.975 94.7515 117.13C93.617 115.301 92.6761 113.782 92.0944 112.227C91.8512 111.426 92.1355 110.927 92.3249 110.406C92.2115 110.272 91.9687 109.515 91.8255 109.159C100.114 104.115 106.228 96.063 109.1 86.7635C109.487 86.8263 110.161 86.9492 110.38 86.9944C110.831 86.6881 111.245 86.2884 112.058 86.3544C113.657 86.5928 115.299 87.2053 117.282 87.938C118.204 88.3018 118.946 88.7242 119.971 89.007C120.188 89.0668 120.498 89.1225 120.746 89.1785C120.766 89.1836 120.783 89.1936 120.803 89.1983C120.817 89.2014 120.835 89.2019 120.848 89.2049C122.625 89.5991 124.35 88.5971 124.715 86.9482C125.08 85.2997 123.946 83.6263 122.18 83.187C121.923 83.1268 121.559 83.0246 121.309 82.9759C120.267 82.7724 119.418 82.8226 118.434 82.7383C116.34 82.5121 114.605 82.3281 113.063 81.8277C112.434 81.5764 111.987 80.8055 111.769 80.4882L110.559 80.1253C111.187 75.4473 111.018 70.5787 109.932 65.7074C108.836 60.7908 106.9 56.294 104.317 52.3321C104.627 52.0413 105.213 51.5063 105.38 51.3489C105.428 50.7948 105.387 50.2139 105.943 49.6003C107.121 48.46 108.607 47.5143 110.399 46.3736C111.25 45.8579 112.036 45.5254 112.89 44.8758C113.083 44.7288 113.347 44.4962 113.549 44.3281C114.987 43.1464 115.318 41.1083 114.286 39.7751C113.254 38.4418 111.254 38.3162 109.817 39.4979C109.612 39.6649 109.334 39.8828 109.151 40.0456C108.346 40.7589 107.849 41.4634 107.172 42.2033C105.695 43.7502 104.473 45.0408 103.132 45.9711C102.551 46.3197 101.7 46.1991 101.314 46.1757L100.174 47.0137C93.6758 39.9906 84.8278 35.5004 75.3006 34.6282C75.2739 34.2167 75.239 33.4729 75.2301 33.2491C74.8401 32.8644 74.3689 32.536 74.2506 31.705C74.1202 30.0445 74.3378 28.258 74.5899 26.1028C74.729 25.0959 74.9602 24.2594 74.9997 23.1665C75.0086 22.918 74.9942 22.5575 74.9933 22.2889C74.9931 20.3939 73.6517 18.8574 71.9969 18.8576ZM68.245 42.8104L67.355 59.0099L67.291 59.0429C67.2313 60.4921 66.074 61.6493 64.6531 61.6493C64.0711 61.6493 63.5339 61.4567 63.0973 61.128L63.0717 61.1412L50.1834 51.7251C54.1445 47.7108 59.2111 44.7442 65.0501 43.3779C66.1167 43.1283 67.1828 42.9431 68.245 42.8104ZM75.7552 42.8104C82.5723 43.6745 88.8768 46.8559 93.7079 51.7317L80.9028 61.0884L80.858 61.0686C79.7214 61.9242 78.1201 61.7119 77.2341 60.5671C76.8712 60.0982 76.6808 59.5468 76.6579 58.9901L76.6451 58.9835L75.7552 42.8104ZM45.5095 57.7759L57.2774 68.624L57.2646 68.69C58.3268 69.6416 58.4834 71.2931 57.5975 72.438C57.2347 72.9069 56.7489 73.2215 56.2274 73.3684L56.2146 73.4211L41.1302 77.9082C40.3624 70.6729 42.017 63.6397 45.5095 57.7759ZM98.4009 57.7825C100.149 60.7033 101.473 63.9656 102.262 67.5022C103.04 70.9965 103.236 74.4844 102.915 77.8554L87.7535 73.3551L87.7407 73.2892C86.3831 72.9068 85.5487 71.4835 85.8648 70.0559C85.9943 69.471 86.2955 68.9763 86.7035 68.6108L86.6971 68.5778L98.4009 57.7825ZM69.5831 69.462H74.4042L77.4006 73.3222L76.325 78.1391L71.9969 80.2836L67.6559 78.1325L66.5803 73.3156L69.5831 69.462ZM85.0388 82.6723C85.2437 82.6617 85.4477 82.6807 85.6471 82.7185L85.6727 82.6855L101.276 85.4041C98.9922 92.016 94.6226 97.744 88.7843 101.577L82.7275 86.4995L82.7467 86.4731C82.1903 85.1407 82.7471 83.5783 84.0272 82.9429C84.355 82.7802 84.6974 82.6901 85.0388 82.6723ZM58.8332 82.7383C60.0239 82.7555 61.092 83.6073 61.3686 84.8564C61.4982 85.4413 61.4351 86.0207 61.2214 86.5325L61.2662 86.5919L55.2734 101.518C49.6705 97.8124 45.2077 92.2642 42.8205 85.4569L58.289 82.7515L58.3146 82.7845C58.4877 82.7517 58.6631 82.7358 58.8332 82.7383ZM71.9008 89.2775C72.3156 89.2618 72.7365 89.3495 73.1365 89.548C73.6609 89.8083 74.066 90.2181 74.321 90.7094H74.3786L82.004 104.91C81.0144 105.251 79.997 105.544 78.9564 105.787C73.1246 107.152 67.3113 106.738 62.0473 104.89L69.6535 90.716H69.6663C70.1227 89.8367 70.9883 89.312 71.9008 89.2775Z" fill="white" stroke="white" stroke-width="0.25"/>
</svg>
