<svg width="36" height="36" viewBox="0 0 36 36" fill="none" xmlns="http://www.w3.org/2000/svg">
<g clip-path="url(#clip0_4215_3851)">
<path d="M10.5 9.00048H34.5C34.8978 9.00048 35.2794 8.84245 35.5607 8.56114C35.842 8.27984 36 7.89831 36 7.50049C36 7.10266 35.842 6.72113 35.5607 6.43983C35.2794 6.15852 34.8978 6.00049 34.5 6.00049H10.5C10.1022 6.00049 9.72064 6.15852 9.43934 6.43983C9.15804 6.72113 9 7.10266 9 7.50049C9 7.89831 9.15804 8.27984 9.43934 8.56114C9.72064 8.84245 10.1022 9.00048 10.5 9.00048Z" fill="#6161FF"/>
<path d="M34.5 16.4995H10.5C10.1022 16.4995 9.72064 16.6575 9.43934 16.9389C9.15804 17.2202 9 17.6017 9 17.9995C9 18.3973 9.15804 18.7789 9.43934 19.0602C9.72064 19.3415 10.1022 19.4995 10.5 19.4995H34.5C34.8978 19.4995 35.2794 19.3415 35.5607 19.0602C35.842 18.7789 36 18.3973 36 17.9995C36 17.6017 35.842 17.2202 35.5607 16.9389C35.2794 16.6575 34.8978 16.4995 34.5 16.4995Z" fill="#6161FF"/>
<path d="M34.5 27H10.5C10.1022 27 9.72064 27.158 9.43934 27.4393C9.15804 27.7206 9 28.1022 9 28.5C9 28.8978 9.15804 29.2794 9.43934 29.5607C9.72064 29.842 10.1022 30 10.5 30H34.5C34.8978 30 35.2794 29.842 35.5607 29.5607C35.842 29.2794 36 28.8978 36 28.5C36 28.1022 35.842 27.7206 35.5607 27.4393C35.2794 27.158 34.8978 27 34.5 27Z" fill="#6161FF"/>
<path d="M3 10.5C4.65685 10.5 6 9.15685 6 7.49999C6 5.84314 4.65685 4.5 3 4.5C1.34315 4.5 0 5.84314 0 7.49999C0 9.15685 1.34315 10.5 3 10.5Z" fill="#6161FF"/>
<path d="M3 21.0005C4.65685 21.0005 6 19.6573 6 18.0005C6 16.3436 4.65685 15.0005 3 15.0005C1.34315 15.0005 0 16.3436 0 18.0005C0 19.6573 1.34315 21.0005 3 21.0005Z" fill="#6161FF"/>
<path d="M3 31.4995C4.65685 31.4995 6 30.1564 6 28.4995C6 26.8427 4.65685 25.4995 3 25.4995C1.34315 25.4995 0 26.8427 0 28.4995C0 30.1564 1.34315 31.4995 3 31.4995Z" fill="#6161FF"/>
</g>
<defs>
<clipPath id="clip0_4215_3851">
<rect width="36" height="36" fill="white"/>
</clipPath>
</defs>
</svg>
