<svg width="68" height="45" viewBox="0 0 68 45" fill="none" xmlns="http://www.w3.org/2000/svg">
<path d="M49.1627 18.3854C48.2459 18.9791 47.7529 20.0418 47.8466 21.1395C48.8916 32.939 35.7897 40.7921 26.0693 34.2013C25.0687 33.5278 23.7723 33.4929 22.7076 34.0616C20.6521 35.1543 18.784 36.1172 17.1129 36.9504C33.3941 55.4605 62.5455 38.2376 54.6391 14.7931C52.761 16.0404 50.9372 17.2379 49.1627 18.3854ZM44.9186 13.6207C41.9069 15.6613 37.5889 18.3555 32.7238 21.1993C28.2037 23.8387 24.0286 26.1187 20.8493 27.7253C15.0575 12.3484 34.6462 0.883109 44.9186 13.6207ZM12.5337 28.2242C13.0266 30.165 12.4499 32.1907 11.0007 33.5527C-15.6959 51.6587 11.6366 38.6717 35.3757 24.9263C54.1461 13.9749 68.574 3.71201 67.9824 2.67424C67.6325 2.06056 62.6835 4.05627 55.1961 7.78823C53.1997 8.61645 51.0802 8.15744 49.557 6.6407H49.5521C44.9532 2.01567 39.4768 1.49745e-06 34.1335 1.49745e-06C20.8591 -0.00498776 8.43753 12.4582 12.5337 28.2242Z" fill="url(#paint0_linear_194_1158)"/>
<defs>
<linearGradient id="paint0_linear_194_1158" x1="4.08271e-07" y1="42.1875" x2="68.334" y2="3.2681" gradientUnits="userSpaceOnUse">
<stop stop-color="#085DF4"/>
<stop offset="1" stop-color="#780FFF"/>
</linearGradient>
</defs>
</svg>
