<svg width="274" height="40" viewBox="0 0 274 40" fill="none" xmlns="http://www.w3.org/2000/svg">
<path d="M104.513 30.8877C103.39 30.4046 102.41 29.6412 101.666 28.6704C100.981 27.779 100.581 26.7016 100.518 25.5789H105.198C105.241 25.9293 105.357 26.267 105.537 26.5705C105.717 26.874 105.958 27.1367 106.245 27.342C106.904 27.8217 107.704 28.0666 108.518 28.0376C109.248 28.0817 109.973 27.8959 110.593 27.5063C110.822 27.361 111.011 27.1598 111.142 26.9216C111.273 26.6834 111.341 26.4159 111.341 26.144C111.34 25.8546 111.253 25.572 111.09 25.3327C110.928 25.0934 110.697 24.9082 110.429 24.8011C109.494 24.3928 108.526 24.0694 107.533 23.835C106.384 23.5736 105.255 23.2281 104.156 22.8013C103.281 22.452 102.506 21.893 101.898 21.1734C101.223 20.3408 100.879 19.2879 100.933 18.217C100.925 17.2171 101.233 16.2403 101.811 15.4249C102.45 14.5392 103.324 13.85 104.334 13.4347C105.555 12.9217 106.871 12.6716 108.195 12.7005C110.385 12.7005 112.134 13.2496 113.44 14.3477C114.089 14.8949 114.616 15.5722 114.988 16.336C115.359 17.0999 115.567 17.9332 115.596 18.7822H111.152C111.131 18.4434 111.038 18.1129 110.88 17.8124C110.722 17.5119 110.502 17.2482 110.236 17.0384C109.608 16.5788 108.841 16.3501 108.064 16.3911C107.387 16.358 106.716 16.526 106.134 16.8741C105.919 17.0126 105.743 17.2047 105.623 17.4316C105.504 17.6585 105.446 17.9125 105.454 18.1687C105.451 18.4705 105.539 18.7662 105.704 19.0182C105.87 19.2702 106.107 19.4672 106.385 19.5841C107.314 20.0062 108.284 20.33 109.28 20.5502C110.398 20.8158 111.496 21.1596 112.566 21.5791C113.435 21.9374 114.205 22.5009 114.81 23.2215C115.467 24.0581 115.809 25.0997 115.775 26.1634C115.788 27.1858 115.479 28.1863 114.892 29.0231C114.256 29.9069 113.383 30.592 112.373 30.9988C111.157 31.4994 109.851 31.7428 108.537 31.7137C107.152 31.729 105.78 31.4474 104.513 30.8877Z" fill="#161616"/>
<path d="M125.026 16.8113V25.7189C125.004 25.9617 125.032 26.2065 125.109 26.4377C125.186 26.669 125.311 26.8815 125.475 27.0618C125.91 27.3823 126.448 27.5303 126.985 27.4773H129.142V31.3997H126.223C122.305 31.3997 120.346 29.4948 120.346 25.6851V16.8113H117.721V12.9903H120.346V8.43988H125.026V12.9903H129.142V16.8113H125.026Z" fill="#161616"/>
<path d="M149.436 23.5936H136.012C136.055 24.7753 136.555 25.894 137.406 26.7141C138.229 27.469 139.312 27.8743 140.427 27.8445C141.194 27.8912 141.958 27.7032 142.616 27.3055C143.275 26.9078 143.797 26.3191 144.113 25.6176H149.122C148.607 27.3677 147.536 28.9023 146.072 29.9893C144.466 31.1614 142.515 31.7631 140.528 31.6993C138.865 31.7272 137.224 31.321 135.766 30.5206C134.371 29.7479 133.228 28.589 132.475 27.1827C131.669 25.6469 131.264 23.9321 131.298 22.1975C131.258 20.4533 131.658 18.7273 132.46 17.1785C133.197 15.7767 134.328 14.6214 135.713 13.8551C137.182 13.0956 138.81 12.6966 140.464 12.6907C142.117 12.6848 143.749 13.0723 145.223 13.8213C146.586 14.5527 147.705 15.6678 148.442 17.0288C149.228 18.4927 149.623 20.1349 149.59 21.7966C149.59 22.3989 149.538 23 149.436 23.5936ZM144.755 20.4682C144.766 19.9231 144.655 19.3825 144.431 18.8855C144.208 18.3884 143.877 17.9473 143.462 17.594C142.6 16.8661 141.501 16.4809 140.374 16.5119C139.312 16.4855 138.278 16.8597 137.479 17.5602C136.661 18.3185 136.146 19.3486 136.031 20.4585L144.755 20.4682Z" fill="#161616"/>
<path d="M157.637 6.81274V31.4005H152.99V6.81274H157.637Z" fill="#161616"/>
<path d="M165.758 6.81274V31.4005H161.111V6.81274H165.758Z" fill="#161616"/>
<path d="M66.4062 17.0776C67.4209 17.0766 68.4131 17.3769 69.2572 17.9406C70.1013 18.5042 70.7595 19.3059 71.1485 20.2441C71.5374 21.1823 71.6397 22.2149 71.4423 23.2113C71.2449 24.2077 70.7568 25.1231 70.0397 25.8417C69.3225 26.5603 68.4086 27.0499 67.4135 27.2484C66.4184 27.4469 65.3868 27.3455 64.4493 26.957C63.5118 26.5685 62.7104 25.9103 62.1466 25.0658C61.5828 24.2212 61.2818 23.2283 61.2818 22.2125C61.2831 20.8518 61.8233 19.5472 62.7839 18.5847C63.7444 17.6221 65.0471 17.0801 66.4062 17.0776ZM66.4062 12.7059C64.5281 12.7059 62.6921 13.2634 61.1305 14.308C59.5689 15.3526 58.3517 16.8373 57.633 18.5745C56.9143 20.3116 56.7262 22.223 57.0926 24.0671C57.459 25.9112 58.3634 27.6051 59.6915 28.9347C61.0195 30.2642 62.7116 31.1696 64.5536 31.5364C66.3957 31.9032 68.305 31.715 70.0402 30.9954C71.7754 30.2759 73.2585 29.0574 74.3019 27.4941C75.3454 25.9307 75.9023 24.0927 75.9023 22.2125C75.9023 19.6912 74.9018 17.2731 73.121 15.4903C71.3401 13.7075 68.9247 12.7059 66.4062 12.7059Z" fill="#161616"/>
<path d="M97.0282 17.1597C96.3453 15.7988 95.2978 14.6548 94.0028 13.8556C92.7197 13.0752 91.2433 12.6718 89.7421 12.6914C88.4886 12.6689 87.2493 12.9611 86.1377 13.5416C85.163 14.035 84.3171 14.7496 83.6672 15.6284V12.9716H79.0156V39.0229L83.6672 37.7718V28.7773C84.3417 29.6469 85.1959 30.3604 86.1715 30.8689C87.2733 31.4412 88.5011 31.7269 89.7421 31.6998C91.2479 31.7194 92.7274 31.3034 94.0028 30.5018C95.3034 29.6755 96.3505 28.5052 97.0282 27.1204C97.7912 25.5663 98.1718 23.852 98.138 22.1207C98.1726 20.4017 97.7918 18.6998 97.0282 17.1597ZM92.7096 25.0529C92.2942 25.834 91.6757 26.4882 90.9195 26.9465C90.1921 27.3872 89.3571 27.618 88.5069 27.6131C87.672 27.6136 86.8522 27.3901 86.1328 26.9658C85.376 26.5147 84.7569 25.8649 84.3427 25.0867C83.893 24.1868 83.6589 23.1945 83.6589 22.1883C83.6589 21.1822 83.893 20.1898 84.3427 19.29C84.756 18.5124 85.3754 17.8639 86.1328 17.4157C86.8509 16.9877 87.6712 16.7624 88.5069 16.7636C89.3526 16.7592 90.1846 16.9774 90.9195 17.3964C91.6757 17.8333 92.2955 18.4722 92.7096 19.2417C93.1805 20.1249 93.4149 21.1151 93.39 22.1159C93.4199 23.1372 93.1855 24.149 92.7096 25.0529Z" fill="#161616"/>
<path d="M183.6 28.7091V31.6993L188.28 30.4385V12.9904H183.6V15.6279C182.944 14.7521 182.1 14.0356 181.129 13.5314C180.016 12.9586 178.777 12.6731 177.525 12.7005C176.022 12.6816 174.545 13.0849 173.259 13.8647C171.964 14.6699 170.917 15.8208 170.239 17.1882C169.477 18.7256 169.097 20.4238 169.129 22.1395C169.095 23.8708 169.476 25.5851 170.239 27.1392C170.916 28.5227 171.961 29.6927 173.259 30.5206C174.527 31.319 175.998 31.7349 177.496 31.7186C178.759 31.7448 180.008 31.4542 181.129 30.8732C182.116 30.3626 182.963 29.62 183.6 28.7091ZM176.362 26.946C175.603 26.4847 174.984 25.825 174.572 25.0379C174.104 24.1447 173.87 23.1476 173.892 22.1395C173.867 21.1387 174.101 20.1485 174.572 19.2653C174.973 18.5106 175.574 17.8805 176.308 17.4436C177.042 17.0067 177.882 16.7796 178.736 16.7872C179.584 16.7857 180.417 17.0109 181.149 17.4394C181.91 17.8774 182.533 18.5221 182.944 19.2991C183.376 20.2041 183.6 21.1944 183.6 22.1975C183.6 23.2006 183.376 24.1909 182.944 25.0958C182.53 25.8708 181.908 26.5149 181.149 26.9556C180.415 27.3796 179.583 27.6029 178.736 27.6029C177.89 27.6117 177.058 27.3842 176.333 26.946H176.362Z" fill="#161616"/>
<path d="M44.2112 15.8746C43.845 16.1111 43.5508 16.444 43.361 16.8368C43.1712 17.2296 43.0931 17.6672 43.1352 18.1015C43.9893 27.6612 33.258 34.0424 25.2818 28.6805C24.8749 28.4162 24.4046 28.2661 23.9201 28.2457C23.4355 28.2253 22.9543 28.3354 22.5266 28.5645C20.841 29.4534 19.313 30.2343 17.9427 30.9074C31.2748 45.8822 55.15 31.9508 48.6746 12.9617C47.153 13.9729 45.6652 14.9439 44.2112 15.8746ZM59.623 3.14597C59.3383 2.66291 55.2803 4.26667 49.1523 7.28579C48.3785 7.61319 47.5243 7.69982 46.7006 7.5344C45.877 7.36898 45.1223 6.95916 44.5345 6.35831C31.4099 -6.70844 9.5178 5.93322 14.2224 23.8402C14.4261 24.605 14.4173 25.411 14.1971 26.1712C13.9768 26.9314 13.5535 27.6169 12.9727 28.1539C-8.88565 42.8196 13.489 32.3034 32.9298 21.1689C48.2934 12.2951 60.1056 3.98166 59.623 3.14597ZM30.7344 18.1498C27.0334 20.2849 23.6171 22.135 21.0115 23.4345C16.2683 10.9812 32.3074 1.69679 40.7226 12.0149C38.2665 13.667 34.7345 15.8504 30.7344 18.1498Z" fill="url(#paint0_linear_4079_41240)"/>
<path d="M191.799 21.5961C191.799 19.7525 192.176 18.12 192.932 16.6985C193.709 15.2769 194.753 14.1775 196.063 13.4001C197.396 12.6005 198.873 12.2006 200.495 12.2006C201.694 12.2006 202.871 12.4672 204.026 13.0003C205.203 13.5111 206.136 14.1997 206.825 15.0659V6.20355H210.656V30.8583H206.825V28.093C206.203 28.9814 205.337 29.7144 204.226 30.2919C203.138 30.8694 201.883 31.1581 200.461 31.1581C198.862 31.1581 197.396 30.7583 196.063 29.9587C194.753 29.1369 193.709 28.0041 192.932 26.5604C192.176 25.0944 191.799 23.4396 191.799 21.5961ZM206.825 21.6627C206.825 20.3967 206.558 19.2972 206.025 18.3643C205.514 17.4314 204.837 16.7207 203.993 16.232C203.149 15.7434 202.238 15.4991 201.261 15.4991C200.284 15.4991 199.373 15.7434 198.529 16.232C197.685 16.6985 196.996 17.3981 196.463 18.331C195.952 19.2417 195.697 20.33 195.697 21.5961C195.697 22.8622 195.952 23.9727 196.463 24.9278C196.996 25.8829 197.685 26.6159 198.529 27.1268C199.395 27.6154 200.306 27.8597 201.261 27.8597C202.238 27.8597 203.149 27.6154 203.993 27.1268C204.837 26.6381 205.514 25.9273 206.025 24.9945C206.558 24.0394 206.825 22.9288 206.825 21.6627Z" fill="#7F7F7F"/>
<path d="M223.156 31.158C221.424 31.158 219.858 30.7693 218.459 29.9919C217.059 29.1923 215.96 28.0817 215.16 26.6602C214.361 25.2164 213.961 23.5506 213.961 21.6626C213.961 19.7968 214.372 18.1421 215.194 16.6983C216.015 15.2546 217.137 14.144 218.559 13.3666C219.98 12.5892 221.568 12.2005 223.323 12.2005C225.078 12.2005 226.666 12.5892 228.087 13.3666C229.509 14.144 230.631 15.2546 231.452 16.6983C232.274 18.1421 232.685 19.7968 232.685 21.6626C232.685 23.5283 232.263 25.1831 231.419 26.6268C230.575 28.0706 229.42 29.1923 227.954 29.9919C226.51 30.7693 224.911 31.158 223.156 31.158ZM223.156 27.8596C224.134 27.8596 225.044 27.6264 225.888 27.1599C226.755 26.6935 227.454 25.9938 227.987 25.0609C228.521 24.1281 228.787 22.9953 228.787 21.6626C228.787 20.3299 228.532 19.2082 228.021 18.2975C227.51 17.3647 226.832 16.665 225.988 16.1986C225.144 15.7321 224.234 15.4989 223.256 15.4989C222.279 15.4989 221.368 15.7321 220.524 16.1986C219.703 16.665 219.047 17.3647 218.559 18.2975C218.07 19.2082 217.826 20.3299 217.826 21.6626C217.826 23.6394 218.325 25.172 219.325 26.2604C220.347 27.3265 221.624 27.8596 223.156 27.8596Z" fill="#7F7F7F"/>
<path d="M235.061 21.6626C235.061 19.7746 235.438 18.1199 236.193 16.6983C236.971 15.2546 238.037 14.144 239.392 13.3666C240.747 12.5892 242.301 12.2005 244.056 12.2005C246.277 12.2005 248.11 12.7336 249.554 13.7997C251.019 14.8437 252.008 16.3429 252.519 18.2975H248.421C248.088 17.3869 247.554 16.6761 246.822 16.1652C246.089 15.6544 245.167 15.399 244.056 15.399C242.501 15.399 241.258 15.9542 240.325 17.0648C239.414 18.1532 238.959 19.6858 238.959 21.6626C238.959 23.6394 239.414 25.1831 240.325 26.2937C241.258 27.4042 242.501 27.9595 244.056 27.9595C246.255 27.9595 247.71 26.9933 248.421 25.0609H252.519C251.986 26.9267 250.986 28.4149 249.52 29.5254C248.054 30.6138 246.233 31.158 244.056 31.158C242.301 31.158 240.747 30.7693 239.392 29.9919C238.037 29.1923 236.971 28.0817 236.193 26.6602C235.438 25.2164 235.061 23.5506 235.061 21.6626Z" fill="#7F7F7F"/>
<path d="M263.007 31.158C261.563 31.158 260.264 30.9026 259.109 30.3917C257.976 29.8586 257.076 29.1478 256.41 28.2594C255.744 27.3487 255.388 26.3381 255.344 25.2275H259.275C259.342 26.0049 259.708 26.6602 260.375 27.1932C261.063 27.7041 261.918 27.9595 262.94 27.9595C264.006 27.9595 264.828 27.7596 265.406 27.3598C266.005 26.9378 266.305 26.4047 266.305 25.7606C266.305 25.072 265.972 24.5612 265.306 24.228C264.661 23.8948 263.629 23.5283 262.207 23.1285C260.83 22.7509 259.708 22.3845 258.842 22.0291C257.976 21.6737 257.221 21.1295 256.576 20.3965C255.955 19.6636 255.644 18.6974 255.644 17.4979C255.644 16.5206 255.932 15.6322 256.51 14.8326C257.087 14.0107 257.909 13.3666 258.975 12.9002C260.064 12.4337 261.308 12.2005 262.707 12.2005C264.795 12.2005 266.472 12.7336 267.738 13.7997C269.026 14.8437 269.715 16.2763 269.803 18.0976H266.005C265.939 17.2758 265.605 16.6206 265.006 16.1319C264.406 15.6433 263.595 15.399 262.574 15.399C261.574 15.399 260.808 15.5877 260.275 15.9653C259.742 16.3429 259.475 16.8427 259.475 17.4646C259.475 17.9533 259.653 18.3642 260.008 18.6974C260.364 19.0305 260.797 19.2971 261.308 19.497C261.818 19.6747 262.574 19.9079 263.573 20.1966C264.906 20.552 265.994 20.9185 266.838 21.2961C267.704 21.6515 268.449 22.1846 269.07 22.8953C269.692 23.6061 270.014 24.5501 270.037 25.7273C270.037 26.7712 269.748 27.7041 269.17 28.5259C268.593 29.3477 267.771 29.9919 266.705 30.4583C265.661 30.9248 264.428 31.158 263.007 31.158Z" fill="#7F7F7F"/>
<defs>
<linearGradient id="paint0_linear_4079_41240" x1="5.84097" y1="34.0473" x2="59.1218" y2="3.30346" gradientUnits="userSpaceOnUse">
<stop stop-color="#085DF4"/>
<stop offset="1" stop-color="#780FFF"/>
</linearGradient>
</defs>
</svg>
